<svg id="prefix__Capa_1" data-name="Capa 1" xmlns="http://www.w3.org/2000/svg" viewBox="0 0 24 24"><defs><clipPath id="prefix__clippath"><path class="prefix__cls-2" d="M7.21 7.73h11.17v8.54H7.21z"/></clipPath><style>.prefix__cls-2{fill:none;stroke-width:0}</style></defs><g id="prefix__error-alert"><g id="prefix__Elipse_23" data-name="Elipse 23"><circle class="prefix__cls-2" cx="12" cy="12" r="12"/><circle cx="12" cy="12" r="11.5" fill="none" stroke="#021c1e"/></g></g><g clip-path="url(#prefix__clippath)"><g id="prefix__Grupo_183" data-name="Grupo 183"><path id="prefix__Trazado_240" data-name="Trazado 240" d="M10.82 16.27c-.25 0-.49-.1-.67-.28-.89-.88-1.77-1.76-2.64-2.64a.963.963 0 01.46-1.63c.34-.08.69.03.93.28.59.6 1.19 1.19 1.79 1.79.14.14.15.14.29 0l5.71-5.71c.22-.24.55-.37.88-.34.41.06.74.38.82.79.05.35-.08.7-.34.93-2.14 2.14-4.28 4.27-6.41 6.41-.14.16-.32.29-.53.35-.09.02-.19.03-.27.05" stroke-width="0" fill="#021c1e"/></g></g></svg>