<svg xmlns="http://www.w3.org/2000/svg" width="8.532" height="8.535" viewBox="0 0 8.532 8.535">
  <path id="Trazado_240" data-name="Trazado 240" d="M4.265,5.009c-.022.027-.034.044-.049.059L.938,8.348a.577.577,0,0,1-.309.178A.529.529,0,0,1,0,8.019a.555.555,0,0,1,.174-.412L3.463,4.32c.016-.016.034-.03.054-.048l-.05-.052L.178.934A.532.532,0,0,1,.019.395.528.528,0,0,1,.894.145l.041.04,3.29,3.292c.012.012.023.026.037.042L4.3,3.477,7.621.161a.532.532,0,1,1,.756.747c-.061.064-.125.125-.187.187L5.064,4.22a.415.415,0,0,1-.05.037l0,.022a.31.31,0,0,1,.052.034Q6.709,5.959,8.355,7.6a.557.557,0,0,1,.122.637.529.529,0,0,1-.831.156l-.064-.061L4.316,5.07c-.016-.016-.029-.035-.051-.062" transform="translate(0.001 0)" fill="#021c1e"/>
</svg>
