<svg xmlns="http://www.w3.org/2000/svg" data-name="Layer 1" viewBox="0 0 24 24" width="512" height="512"><path fill="#6a7235" d="M15.162 24.009h-.008c-.747-.004-1.347-.538-1.425-1.271L12 6.782l-1.729 15.957a1.415 1.415 0 01-1.425 1.27h-.008a1.415 1.415 0 01-1.43-1.257L5.688 8.94l-1.294 9.845a1.404 1.404 0 01-1.346 1.228 1.411 1.411 0 01-1.464-1.093L.026 12.227a.998.998 0 111.947-.453l.848 3.638 1.47-11.184A1.4 1.4 0 015.704 3h.004a1.402 1.402 0 011.411 1.241L8.8 17.745l1.784-16.458C10.663.558 11.259.031 12 .031s1.337.527 1.416 1.255L15.2 17.745l1.682-13.51c.084-.711.678-1.232 1.41-1.235h.004c.73 0 1.325.519 1.414 1.233l1.469 11.178.848-3.638a.995.995 0 011.2-.747.998.998 0 01.747 1.2l-1.559 6.693a1.412 1.412 0 01-1.464 1.093 1.404 1.404 0 01-1.346-1.228l-1.294-9.845-1.721 13.819c-.085.722-.686 1.249-1.429 1.249z"/></svg>