<svg xmlns="http://www.w3.org/2000/svg" data-name="Layer 1" viewBox="0 0 24 24" width="512" height="512"><path fill="#6a7235" d="M23 11h-4.08a6.924 6.924 0 00-.429-1.607l3.527-2.044a1 1 0 10-1-1.731l-3.53 2.047a7.062 7.062 0 00-1.149-1.15l2.046-3.531a1 1 0 00-1.731-1l-2.047 3.525A6.9 6.9 0 0013 5.08V1a1 1 0 00-2 0v4.08a6.9 6.9 0 00-1.607.429L7.349 1.982a1 1 0 00-1.731 1l2.046 3.533a7.062 7.062 0 00-1.149 1.15l-3.53-2.047a1 1 0 10-1 1.731l3.524 2.044A6.924 6.924 0 005.08 11H1a1 1 0 000 2h4.08a6.924 6.924 0 00.429 1.607l-3.527 2.044a1 1 0 101 1.731l3.53-2.047a7.062 7.062 0 001.149 1.15l-2.043 3.531a1 1 0 001.731 1l2.044-3.527A6.947 6.947 0 0011 18.92V23a1 1 0 002 0v-4.08a6.947 6.947 0 001.607-.429l2.044 3.527a1 1 0 001.731-1l-2.046-3.531a7.062 7.062 0 001.149-1.15l3.53 2.047a1 1 0 101-1.731l-3.527-2.044A6.924 6.924 0 0018.92 13H23a1 1 0 000-2zm-11 6c-6.608-.21-6.606-9.791 0-10 6.608.21 6.606 9.791 0 10z"/></svg>